<?xml version="1.0" standalone="no"?>
<!DOCTYPE svg PUBLIC "-//W3C//DTD SVG 20010904//EN"
 "http://www.w3.org/TR/2001/REC-SVG-20010904/DTD/svg10.dtd">
<svg version="1.0" xmlns="http://www.w3.org/2000/svg"
 width="586.000000pt" height="586.000000pt" viewBox="0 0 586.000000 586.000000"
 preserveAspectRatio="xMidYMid meet">
<metadata>
Created by potrace 1.14, written by Peter Selinger 2001-2017
</metadata>
<g transform="translate(0.000000,586.000000) scale(0.100000,-0.100000)"
fill="#000000" stroke="none">
<path d="M2813 5850 c-425 -60 -746 -355 -837 -771 -5 -21 -14 -28 -43 -34
-54 -10 -86 -32 -117 -78 -61 -95 -3 -221 112 -243 l32 -6 0 -1349 c0 -741 -4
-1350 -8 -1353 -14 -9 -131 64 -190 119 -66 60 -117 151 -131 230 -5 28 -9
262 -10 522 -2 523 -2 526 -68 663 -28 59 -55 94 -122 160 -135 134 -270 190
-457 190 -179 0 -326 -61 -454 -190 -135 -135 -190 -278 -190 -495 l0 -122
-41 -7 c-52 -8 -102 -56 -120 -114 -25 -85 35 -184 120 -198 l41 -7 0 -367 c0
-335 2 -374 20 -446 39 -153 132 -304 257 -418 34 -30 43 -45 43 -71 0 -52 40
-116 90 -142 47 -25 81 -29 127 -12 26 8 41 6 94 -17 234 -99 640 -198 914
-222 l80 -7 5 -325 c5 -316 6 -326 28 -362 89 -143 348 -246 703 -279 178 -16
503 -6 648 21 286 53 481 151 540 274 21 41 21 56 21 684 0 517 3 642 13 642
85 0 388 54 587 104 l94 24 28 -23 c54 -46 143 -45 198 2 34 28 60 72 60 100
0 12 23 30 68 54 99 54 233 153 316 233 116 113 186 219 233 352 l28 79 5 875
5 874 34 7 c49 10 83 39 109 92 27 53 24 101 -8 155 -22 36 -86 72 -128 72
-27 0 -31 6 -50 58 -74 200 -246 355 -452 408 -77 20 -211 22 -295 5 -79 -16
-207 -78 -274 -133 -86 -70 -161 -179 -207 -303 -18 -47 -19 -102 -24 -901
l-5 -850 -38 -77 c-28 -56 -53 -90 -100 -132 -62 -57 -180 -129 -191 -118 -3
4 -6 527 -6 1164 0 1224 0 1223 -45 1346 -16 41 -16 41 17 88 27 38 33 56 32
94 -1 107 -100 187 -198 160 -32 -9 -37 -7 -90 45 -101 99 -247 190 -370 231
-127 42 -316 61 -433 45z"/>
</g>
</svg>
