<?xml version="1.0" standalone="no"?>
<!DOCTYPE svg PUBLIC "-//W3C//DTD SVG 20010904//EN"
 "http://www.w3.org/TR/2001/REC-SVG-20010904/DTD/svg10.dtd">
<svg version="1.0" xmlns="http://www.w3.org/2000/svg"
 width="512.000000pt" height="512.000000pt" viewBox="0 0 512.000000 512.000000"
 preserveAspectRatio="xMidYMid meet">
<metadata>
Created by potrace 1.14, written by Peter Selinger 2001-2017
</metadata>
<g transform="translate(0.000000,512.000000) scale(0.100000,-0.100000)"
fill="#000000" stroke="none">
<path d="M2397 5105 c-319 -64 -573 -301 -662 -620 -17 -61 -26 -79 -38 -77
-18 3 -73 -23 -94 -44 -17 -16 -36 -64 -36 -86 2 -57 5 -69 30 -98 26 -31 67
-55 90 -51 6 1 14 -6 16 -16 8 -28 5 -2343 -3 -2348 -10 -6 -120 61 -158 98
-43 41 -92 111 -92 131 0 9 -4 16 -9 16 -12 0 -12 -28 -15 440 -4 407 -7 500
-16 500 -3 0 -6 10 -7 23 -3 34 -8 50 -21 74 -7 12 -12 29 -12 37 0 9 -4 16
-10 16 -5 0 -10 7 -10 15 0 14 -16 37 -47 70 -7 8 -13 16 -13 20 0 10 -71 75
-115 104 -103 70 -201 101 -321 101 -78 0 -213 -30 -253 -57 -14 -10 -29 -18
-32 -18 -14 0 -68 -44 -125 -102 -110 -111 -162 -255 -159 -435 2 -81 0 -88
-19 -95 -12 -4 -24 -7 -28 -8 -19 -1 -70 -50 -82 -79 -28 -67 2 -154 61 -177
18 -7 33 -16 33 -20 0 -4 8 -6 17 -5 15 1 17 -10 18 -77 1 -43 -2 -80 -7 -83
-5 -3 -5 -11 -1 -17 4 -7 8 -118 9 -248 0 -129 4 -240 7 -246 3 -5 9 -24 12
-40 3 -17 14 -52 25 -77 10 -25 17 -46 14 -46 -3 0 0 -6 6 -12 6 -7 28 -40 49
-74 21 -34 68 -91 104 -128 48 -50 67 -76 69 -99 5 -43 35 -92 67 -108 14 -7
29 -12 34 -11 4 1 7 -2 7 -6 0 -10 79 0 97 11 6 4 19 0 27 -9 9 -8 16 -13 16
-9 0 3 13 -1 28 -9 37 -19 194 -74 224 -78 13 -2 26 -7 29 -11 3 -5 19 -10 35
-11 16 -2 37 -7 48 -11 10 -4 31 -8 47 -9 16 -1 29 -4 29 -7 0 -3 6 -6 13 -6
6 0 24 -3 40 -7 15 -3 38 -8 52 -11 14 -3 37 -8 53 -11 35 -7 78 -14 122 -19
19 -2 35 -5 35 -6 0 -2 59 -6 101 -8 l31 -1 0 -258 c-1 -280 7 -338 49 -371
13 -10 20 -21 17 -25 -3 -3 -2 -6 3 -6 6 0 20 -9 32 -21 22 -20 134 -80 156
-83 6 -1 16 -4 21 -8 9 -5 100 -32 145 -42 42 -10 112 -20 225 -32 86 -10 352
-10 420 -1 28 4 70 10 95 13 25 4 54 9 65 11 11 2 31 6 45 7 14 2 52 11 85 21
33 10 61 17 62 17 1 0 39 17 83 39 92 45 153 96 183 154 20 39 20 55 21 592 1
303 4 554 8 558 3 3 30 9 60 12 75 7 103 11 103 13 0 1 11 3 25 5 69 8 127 18
140 25 8 4 25 6 38 5 12 -1 22 1 22 5 0 3 10 7 23 8 36 5 51 8 67 15 8 3 26 8
40 11 14 3 40 8 58 12 19 4 32 3 32 -4 0 -5 13 -15 30 -22 32 -13 110 -21 110
-11 0 3 13 12 29 19 25 11 51 49 65 93 2 9 35 33 73 54 81 46 171 110 195 139
10 12 18 18 18 13 0 -4 29 23 65 60 70 71 148 181 166 232 6 17 15 31 21 31 5
0 7 4 4 8 -3 5 2 31 11 58 14 43 16 143 17 806 l1 757 34 6 c20 4 48 21 67 40
54 55 54 126 1 196 -16 21 -76 47 -100 43 -10 -1 -21 5 -24 14 -6 20 -18 50
-35 90 -16 37 -92 142 -120 167 -42 38 -125 95 -130 90 -3 -3 -11 1 -18 10 -7
8 -20 15 -29 15 -9 0 -21 4 -27 9 -5 5 -27 12 -49 15 -22 3 -54 10 -71 15 -22
6 -36 5 -43 -2 -8 -8 -11 -8 -11 2 0 7 -3 10 -8 7 -4 -2 -36 -7 -72 -10 -35
-3 -66 -9 -69 -14 -3 -4 -17 -8 -31 -10 -30 -3 -140 -54 -140 -64 0 -5 -5 -8
-11 -8 -16 0 -59 -36 -52 -44 3 -3 0 -6 -7 -6 -39 0 -186 -237 -173 -277 3 -7
1 -13 -4 -13 -13 0 -15 -92 -17 -820 l-1 -685 -28 -50 c-15 -27 -35 -57 -45
-66 -9 -9 -24 -25 -33 -35 -9 -11 -26 -27 -38 -36 -21 -18 -124 -78 -132 -78
-3 0 -5 435 -5 968 0 532 -4 996 -7 1032 -8 80 -32 192 -46 219 -8 15 -8 22 2
28 48 29 62 123 27 180 -31 51 -97 78 -152 62 -25 -7 -34 -1 -85 48 -59 56
-193 153 -213 153 -6 0 -22 7 -35 16 -14 9 -25 12 -25 8 0 -5 -4 -3 -8 3 -4 7
-17 14 -27 16 -11 1 -24 5 -30 9 -47 29 -311 44 -418 23z"/>
</g>
</svg>
